<?xml version="1.0" ?><svg style="enable-background:new 0 0 48 48;" version="1.1" viewBox="0 0 48 48" xml:space="preserve" xmlns="http://www.w3.org/2000/svg" xmlns:xlink="http://www.w3.org/1999/xlink"><g id="Icons"><g><g><path d="M31.33519,11.02578l-0.1386,4.74772c0,0-0.60652-0.02476-2.73554,0     c-2.09188,0.02476-2.11664,1.58439-2.11664,1.65865l-0.02476,3.94858l4.87694,0.08665l-0.70555,5.05023h-4.14663     l-0.1114,10.64509h-5.02547l-0.13616-10.62033l-4.40657-0.02476l0.12378-5.13688h4.3323c0,0,0-3.71259,0-3.7134     c0-1.45277,0.34726-3.02929,1.17518-4.24103c0.73033-1.06892,1.83452-1.77425,3.06584-2.13522     C25.36191,11.29109,27.94421,10.48077,31.33519,11.02578z" style="fill:#5F83CF;"/></g><g><path d="     M31.33519,11.02578l-0.1386,4.74772c0,0-0.60652-0.02476-2.73554,0c-2.09188,0.02476-2.11664,1.58439-2.11664,1.65865     l-0.02476,3.94858l4.87694,0.08665l-0.70555,5.05023h-4.14663l-0.1114,10.64509h-5.02547l-0.13616-10.62033l-4.40657-0.02476     l0.12378-5.13688h4.3323c0,0,0-3.71259,0-3.7134c0-1.45277,0.34726-3.02929,1.17518-4.24103     c0.73033-1.06892,1.83452-1.77425,3.06584-2.13522C25.36191,11.29109,27.94421,10.48077,31.33519,11.02578z" style="fill:none;stroke:#303030;stroke-width:0.7;stroke-linecap:round;stroke-linejoin:round;stroke-miterlimit:10;"/></g></g></g></svg>