<?xml version="1.0" encoding="iso-8859-1"?>
<!-- Generator: Adobe Illustrator 19.0.0, SVG Export Plug-In . SVG Version: 6.00 Build 0)  -->
<svg version="1.1" id="Layer_1" xmlns="http://www.w3.org/2000/svg" xmlns:xlink="http://www.w3.org/1999/xlink" x="0px" y="0px"
	 viewBox="0 0 512 512" style="enable-background:new 0 0 512 512;" xml:space="preserve">
<g>
	<g>
		<path d="M0,65.284v48.413h24.94c5.672,0,10.269,4.598,10.269,10.269c0,5.672-4.598,10.269-10.269,10.269H0v45.479h24.94
			c5.672,0,10.269,4.598,10.269,10.269c0,5.672-4.598,10.269-10.269,10.269H0v45.479h24.94c5.672,0,10.269,4.598,10.269,10.269
			c0,5.672-4.598,10.269-10.269,10.269H0v45.479h24.94c5.672,0,10.269,4.598,10.269,10.269c0,5.672-4.598,10.269-10.269,10.269H0
			v45.479h24.94c5.672,0,10.269,4.598,10.269,10.269c0,5.672-4.598,10.269-10.269,10.269H0v48.413h102.693V65.284H0z"/>
	</g>
</g>
<g>
	<g>
		<path d="M142.958,84.355c-2.092,0-4.133-0.638-5.851-1.831l-13.875-9.619v366.19l13.875-9.619c1.718-1.193,3.76-1.831,5.851-1.831
			h28.687V84.355H142.958z"/>
	</g>
</g>
<g>
	<g>
		<rect x="409.307" y="65.284" width="102.693" height="381.433"/>
	</g>
</g>
<g>
	<g>
		<rect x="267.003" y="84.355" width="54.281" height="343.289"/>
	</g>
</g>
<g>
	<g>
		<rect x="192.183" y="84.355" width="54.281" height="343.289"/>
	</g>
</g>
<g>
	<g>
		<path d="M377.611,82.524c-1.718,1.193-3.76,1.831-5.851,1.831h-29.938v343.289h29.937c2.092,0,4.133,0.638,5.851,1.831
			l11.158,7.736V74.789L377.611,82.524z"/>
	</g>
</g>
<g>
</g>
<g>
</g>
<g>
</g>
<g>
</g>
<g>
</g>
<g>
</g>
<g>
</g>
<g>
</g>
<g>
</g>
<g>
</g>
<g>
</g>
<g>
</g>
<g>
</g>
<g>
</g>
<g>
</g>
</svg>
